<svg width="28" height="9" viewBox="0 0 28 9" fill="none" xmlns="http://www.w3.org/2000/svg">
<path fill-rule="evenodd" clip-rule="evenodd" d="M24.2933 4.94813H25.1319H25.1326C25.2203 4.94987 25.2932 4.87742 25.2965 4.78525V2.34173C25.2965 2.03483 25.3121 1.75767 25.4298 1.48051C25.5105 1.26968 25.7009 1.12773 25.9168 1.11724C26.4533 1.11724 26.4481 1.73516 26.4441 2.22062C26.4437 2.26156 26.4434 2.30156 26.4434 2.34017V4.8056C26.4538 4.8847 26.5165 4.94468 26.5923 4.94813H27.4384C27.5186 4.94988 27.5877 4.88896 27.6 4.8056V1.9487C27.6 1.50948 27.6 0.898017 27.3803 0.534739C27.1427 0.143276 26.7748 0 26.398 0C25.817 0 25.4871 0.295946 25.2518 0.916807H25.2354V0.222351C25.2184 0.149753 25.1575 0.0979148 25.0864 0.095517H24.3059C24.2235 0.0933842 24.1532 0.158055 24.1443 0.244273V4.78525C24.1454 4.87231 24.2106 4.94356 24.2933 4.94813ZM23.5039 2.56643C23.5039 1.13368 22.8284 0.00626373 21.5794 0.00626373C20.3625 0.00626373 19.687 1.11489 19.687 2.51867C19.687 3.92246 20.3543 5.04988 21.5794 5.04988C22.7591 5.04988 23.5039 3.95143 23.5039 2.56643ZM20.9277 2.3754C20.9277 1.82109 20.9672 0.933247 21.5876 0.933247C21.8542 0.933247 22.0426 1.0593 22.1372 1.37247C22.2474 1.73496 22.2631 2.19376 22.2631 2.57583C22.2631 3.15832 22.2385 4.11349 21.5794 4.11349C20.9275 4.11349 20.9276 2.95541 20.9277 2.39377L20.9277 2.3754ZM5.19103 4.95753H6.03186H6.0326C6.0748 4.95853 6.11566 4.94185 6.14614 4.91114C6.17661 4.88043 6.19418 4.83822 6.19496 4.79385V2.38792L6.19494 2.35025C6.1946 1.82712 6.19414 1.13523 6.77587 1.13523C7.31367 1.13523 7.30535 1.74315 7.29863 2.23406V2.23406V2.23407V2.23408V2.23409C7.29791 2.28703 7.2972 2.33861 7.2972 2.38792V4.79463C7.29863 4.88154 7.3636 4.95257 7.44615 4.95753H8.28922C8.33129 4.95832 8.37196 4.94155 8.40227 4.91086C8.43258 4.88017 8.45005 4.83808 8.45083 4.79385V2.38792L8.45075 2.33071V2.33069C8.45025 2.07578 8.44956 1.7318 8.52977 1.51809C8.61156 1.29962 8.80926 1.15336 9.03249 1.1462C9.27602 1.1462 9.46445 1.23232 9.52701 1.53766C9.55894 1.68461 9.5548 2.02528 9.55206 2.25119V2.2512L9.55205 2.25134C9.55141 2.3046 9.55084 2.35147 9.55084 2.38792V4.79463C9.5519 4.8817 9.61707 4.95295 9.69979 4.95753H10.5406C10.5828 4.95853 10.6237 4.94185 10.6542 4.91114C10.6846 4.88043 10.7022 4.83822 10.703 4.79385V1.92912C10.703 1.85933 10.7041 1.78801 10.7053 1.7159V1.71586V1.71582V1.71578V1.71574C10.7122 1.28799 10.7195 0.832677 10.4907 0.505762C10.2134 0.134935 9.7674 -0.0498547 9.32398 0.0223467C8.88056 0.0945481 8.50865 0.412518 8.35103 0.854164C8.11494 0.280279 7.77757 0.0133012 7.25922 0.0133012C6.74087 0.0133012 6.35583 0.280279 6.15176 0.854164H6.13612V0.261489C6.13169 0.177015 6.06753 0.109564 5.98717 0.104904H5.20294C5.11634 0.104004 5.0449 0.175972 5.04207 0.266969V4.80794C5.04971 4.88966 5.11303 4.95323 5.19103 4.95753ZM3.72757 4.99195C3.67219 5.04245 3.5926 5.05091 3.52872 5.01309C3.29043 4.80467 3.21858 4.692 3.10826 4.51898L3.10825 4.51898L3.10824 4.51897C3.08927 4.48921 3.06916 4.45767 3.04686 4.42355C2.58437 4.91836 2.25742 5.06633 1.65938 5.06633C0.951114 5.06633 0.399994 4.60675 0.399994 3.6876C0.399994 2.96965 0.772373 2.48189 1.2937 2.24231C1.67866 2.06473 2.1923 2.00961 2.63636 1.96195C2.71892 1.95309 2.79909 1.94449 2.87557 1.93541V1.8211C2.87557 1.79928 2.87574 1.77705 2.87591 1.75452C2.87738 1.55962 2.87902 1.34262 2.77354 1.1791C2.67076 1.01625 2.47563 0.949702 2.30136 0.949702C1.98037 0.949702 1.69438 1.12273 1.62438 1.48053C1.6155 1.56399 1.55441 1.63078 1.47542 1.64337L0.666617 1.55021C0.626258 1.54413 0.590032 1.52093 0.566388 1.48601C0.542743 1.45109 0.533747 1.40751 0.541498 1.36544C0.728432 0.325709 1.62214 0.0117559 2.42276 0.0117559C2.83237 0.0117559 3.36711 0.126063 3.68884 0.451761C4.06653 0.823495 4.0642 1.31014 4.06164 1.84195C4.06143 1.88586 4.06122 1.93007 4.06122 1.97455V3.35172C4.06122 3.72262 4.19212 3.90711 4.33001 4.10145C4.34639 4.12453 4.36287 4.14775 4.37923 4.17144C4.43286 4.24974 4.44477 4.3476 4.37923 4.40632C4.20719 4.55743 3.90184 4.83615 3.73427 4.99352L3.72757 4.99195ZM2.87928 2.83576L2.8793 2.87863C2.8796 3.20428 2.87985 3.48043 2.72214 3.77527C2.58808 4.02424 2.37582 4.1777 2.13899 4.1777C1.81651 4.1777 1.62809 3.91933 1.62809 3.5357C1.62809 2.78252 2.27081 2.64551 2.87928 2.64551V2.83576ZM15.3568 4.09821C15.3732 4.12132 15.3897 4.14458 15.4061 4.1683C15.4627 4.24973 15.4746 4.34524 15.4024 4.39927C15.2304 4.55037 14.925 4.82988 14.7574 4.98646C14.7017 5.03626 14.6224 5.04438 14.5586 5.00682C14.3193 4.7975 14.2484 4.68649 14.1365 4.51122L14.1364 4.51108C14.1177 4.48185 14.0979 4.45083 14.076 4.41727C13.6142 4.91208 13.2851 5.06006 12.6893 5.06006C11.981 5.06006 11.4299 4.60048 11.4299 3.68211C11.4299 2.96338 11.8 2.47562 12.3273 2.23604C12.7131 2.05778 13.2296 2.00292 13.675 1.95561C13.7558 1.94703 13.8343 1.9387 13.9092 1.92992V1.81796C13.9092 1.79625 13.9093 1.77412 13.9095 1.75171C13.911 1.55673 13.9126 1.33965 13.8064 1.17674C13.7066 1.01389 13.5077 0.946562 13.3342 0.946562C13.0132 0.946562 12.7287 1.11959 12.658 1.47739C12.6489 1.56073 12.5879 1.62739 12.509 1.64023L11.6935 1.54785C11.6529 1.54199 11.6163 1.51875 11.5925 1.48363C11.5687 1.44851 11.5597 1.40461 11.5677 1.3623C11.7553 0.321787 12.649 0.00861645 13.4497 0.00861645C13.8585 0.00861645 14.3933 0.122924 14.7157 0.448621C15.0942 0.818433 15.0916 1.30131 15.0886 1.8304C15.0884 1.87706 15.0881 1.92408 15.0881 1.97141V3.34936C15.0881 3.71949 15.219 3.90391 15.3568 4.09821ZM13.1704 4.17299C13.4065 4.17299 13.6195 4.01954 13.7528 3.77135C13.911 3.4749 13.9109 3.19745 13.9107 2.86772L13.9107 2.83262V2.64158C13.3022 2.64158 12.6595 2.77781 12.6595 3.53177C12.6595 3.91462 12.8479 4.17299 13.1704 4.17299ZM16.1181 0.251307V0.898005C16.1176 0.942366 16.1345 0.984977 16.1648 1.0159C16.195 1.04682 16.236 1.06335 16.2782 1.06164H17.726L16.0659 3.567C15.9902 3.70139 15.9544 3.85654 15.9632 4.01249V4.67406C15.9632 4.76958 16.0637 4.8784 16.1598 4.82438C17.0754 4.32531 18.1642 4.32327 19.0815 4.8189C19.1865 4.87605 19.2855 4.76566 19.2855 4.67014V3.97491C19.2827 3.8686 19.2258 3.77206 19.1366 3.72202C18.6532 3.43625 18.0909 3.35248 17.5592 3.36579L18.9921 1.21587C19.1254 1.02327 19.1999 0.901136 19.1999 0.807968V0.251307C19.2003 0.207087 19.1835 0.164603 19.1534 0.133704C19.1234 0.102806 19.0826 0.086178 19.0405 0.0876758H16.2752C16.2331 0.08519 16.192 0.101575 16.162 0.132766C16.1321 0.163957 16.1161 0.207033 16.1181 0.251307Z" fill="black"/>
<path fill-rule="evenodd" clip-rule="evenodd" d="M17.5011 7.84501C17.6925 7.34472 18.1185 6.22357 17.9159 5.95189H17.9174C17.7157 5.67963 16.5837 5.82251 16.0745 5.88678L16.0734 5.88691C15.9185 5.90649 15.8947 5.76478 16.0339 5.66221C16.9381 4.99438 18.4194 5.18541 18.5914 5.41089C18.7635 5.63638 18.5445 7.19753 17.6977 7.94288C17.5674 8.05719 17.443 7.99612 17.5011 7.84501ZM11.4172 8.61699C13.3863 8.61699 15.6794 7.96325 17.259 6.73797V6.74032C17.5205 6.53362 17.2963 6.22985 17.0297 6.34885C15.3054 7.1134 13.4546 7.5125 11.5832 7.52324C8.98702 7.52324 6.47569 6.77476 4.444 5.53226C4.266 5.42343 4.13343 5.61525 4.28238 5.75539C6.23834 7.61059 8.78279 8.6311 11.4172 8.61699Z" fill="#FF9900"/>
</svg>
