<svg width="28" height="34" viewBox="0 0 28 34" fill="none" xmlns="http://www.w3.org/2000/svg">
<path d="M23.1707 17.738C23.132 13.5482 26.6893 11.5097 26.852 11.4148C24.8373 8.55095 21.7147 8.15965 20.6173 8.12845C17.9947 7.85935 15.4507 9.65855 14.1147 9.65855C12.752 9.65855 10.6947 8.15445 8.47734 8.19865C5.624 8.24155 2.95467 9.85225 1.49067 12.3534C-1.53066 17.4533 0.722672 24.9478 3.61734 29.0701C5.06534 31.089 6.75734 33.3432 8.97201 33.2639C11.1387 33.1768 11.948 31.9171 14.5627 31.9171C17.1533 31.9171 17.9133 33.2639 20.172 33.2132C22.4973 33.1768 23.9613 31.1852 25.3587 29.1481C27.032 26.8341 27.704 24.5553 27.7307 24.4382C27.676 24.42 23.2147 22.7599 23.1707 17.738Z" fill="white"/>
<path d="M18.904 5.41665C20.0693 3.99575 20.8667 2.06265 20.6453 0.100952C18.9587 0.173752 16.8493 1.23845 15.6347 2.62815C14.56 3.85275 13.6 5.85995 13.848 7.74755C15.7427 7.88535 17.688 6.81545 18.904 5.41665Z" fill="white"/>
</svg>
