<svg width="22" height="22" viewBox="0 0 22 22" fill="none" xmlns="http://www.w3.org/2000/svg">
<path fill-rule="evenodd" clip-rule="evenodd" d="M1.11816 1L3.36525 1.39908L4.40561 14.1175C4.4888 15.1562 5.3347 15.9532 6.35021 15.9499H18.1355C19.1046 15.9521 19.9267 15.2205 20.0639 14.2361L21.0892 6.96621C21.2037 6.15365 20.6538 5.39983 19.863 5.28233C19.7938 5.27235 3.72608 5.26681 3.72608 5.26681" fill="#E21A43" fill-opacity="0.1"/>
<path fill-rule="evenodd" clip-rule="evenodd" d="M13.4069 9.36389H16.4027H13.4069Z" fill="#E21A43" fill-opacity="0.1"/>
<path fill-rule="evenodd" clip-rule="evenodd" d="M5.87627 19.7928C6.20145 19.7928 6.46397 20.0633 6.46397 20.3958C6.46397 20.7295 6.20145 21 5.87627 21C5.55109 21 5.28857 20.7295 5.28857 20.3958C5.28857 20.0633 5.55109 19.7928 5.87627 19.7928Z" fill="#E21A43" fill-opacity="0.1"/>
<path fill-rule="evenodd" clip-rule="evenodd" d="M18.0627 19.7928C18.3879 19.7928 18.6515 20.0633 18.6515 20.3958C18.6515 20.7295 18.3879 21 18.0627 21C17.7375 21 17.475 20.7295 17.475 20.3958C17.475 20.0633 17.7375 19.7928 18.0627 19.7928Z" fill="#E21A43" fill-opacity="0.1"/>
<path d="M1.11816 1L3.36525 1.39908L4.40561 14.1175C4.4888 15.1562 5.3347 15.9532 6.35021 15.9499H18.1355C19.1046 15.9521 19.9267 15.2205 20.0639 14.2361L21.0892 6.96621C21.2037 6.15364 20.6538 5.39983 19.863 5.28233C19.7938 5.27235 3.72608 5.26681 3.72608 5.26681M13.4069 9.36389H16.4027M5.87627 19.7928C6.20145 19.7928 6.46397 20.0633 6.46397 20.3958C6.46397 20.7295 6.20145 21 5.87627 21C5.55109 21 5.28857 20.7295 5.28857 20.3958C5.28857 20.0633 5.55109 19.7928 5.87627 19.7928ZM18.0627 19.7928C18.3879 19.7928 18.6515 20.0633 18.6515 20.3958C18.6515 20.7295 18.3879 21 18.0627 21C17.7375 21 17.475 20.7295 17.475 20.3958C17.475 20.0633 17.7375 19.7928 18.0627 19.7928Z" stroke="#E21A43" stroke-width="1.5" stroke-linecap="round" stroke-linejoin="round"/>
</svg>
