<svg width="20" height="20" viewBox="0 0 20 20" fill="none" xmlns="http://www.w3.org/2000/svg">
<path d="M3.46288 2.43301C5.27744 0.86067 7.59886 -0.00333986 9.99988 9.70266e-06C15.5229 9.70266e-06 19.9999 4.47701 19.9999 10C19.9999 12.136 19.3299 14.116 18.1899 15.74L14.9999 10H17.9999C18 8.43163 17.5391 6.89781 16.6745 5.58927C15.81 4.28072 14.5798 3.25517 13.1371 2.64013C11.6943 2.0251 10.1026 1.84771 8.55983 2.13003C7.01708 2.41234 5.59133 3.14191 4.45988 4.22801L3.46288 2.43301ZM16.5369 17.567C14.7223 19.1393 12.4009 20.0034 9.99988 20C4.47688 20 -0.00012207 15.523 -0.00012207 10C-0.00012207 7.86401 0.669878 5.88401 1.80988 4.26001L4.99988 10H1.99988C1.99975 11.5684 2.46063 13.1022 3.32521 14.4108C4.1898 15.7193 5.41995 16.7449 6.8627 17.3599C8.30545 17.9749 9.89716 18.1523 11.4399 17.87C12.9827 17.5877 14.4084 16.8581 15.5399 15.772L16.5369 17.567Z" fill="#333333"/>
</svg>
