<svg width="26" height="11" viewBox="0 0 26 11" fill="none" xmlns="http://www.w3.org/2000/svg">
<path fill-rule="evenodd" clip-rule="evenodd" d="M12.0578 8.52782V5.59317H13.5725C14.1931 5.59317 14.717 5.3852 15.144 4.97505L15.2465 4.87106C16.0266 4.02186 15.9754 2.69896 15.144 1.91331C14.7284 1.49737 14.1589 1.27207 13.5725 1.28363H11.1411V8.52782H12.0578ZM12.0579 4.70348V2.17321H13.5956C13.9259 2.17321 14.2391 2.3003 14.4726 2.53137C14.9681 3.01663 14.9795 3.82539 14.5011 4.32798C14.2676 4.57639 13.9373 4.71503 13.5956 4.70348H12.0579ZM19.5228 3.95829C19.1299 3.59435 18.5947 3.40949 17.9171 3.40949C17.0459 3.40949 16.3911 3.733 15.9583 4.37423L16.7669 4.88837C17.063 4.44933 17.4672 4.22981 17.9797 4.22981C18.3043 4.22981 18.6174 4.35112 18.8623 4.57064C19.1014 4.77861 19.2381 5.07901 19.2381 5.39674V5.61048C18.8851 5.41407 18.4409 5.31008 17.8943 5.31008C17.2566 5.31008 16.7441 5.46028 16.3626 5.76646C15.9811 6.07263 15.7875 6.47701 15.7875 6.99115C15.7761 7.45908 15.9754 7.9039 16.3284 8.2043C16.6871 8.5278 17.1427 8.68955 17.6779 8.68955C18.31 8.68955 18.811 8.40649 19.1925 7.84035H19.2324V8.5278H20.1093V5.47184C20.1093 4.8306 19.9157 4.32224 19.5228 3.95829ZM17.0346 7.61507C16.8467 7.47643 16.7328 7.25113 16.7328 7.0085C16.7328 6.73699 16.8581 6.51169 17.103 6.33261C17.3536 6.15352 17.6668 6.06109 18.037 6.06109C18.5495 6.05532 18.9482 6.17085 19.2329 6.40193C19.2329 6.79476 19.0791 7.13559 18.7773 7.42443C18.5039 7.70172 18.1338 7.8577 17.7465 7.8577C17.4902 7.86348 17.2397 7.77682 17.0346 7.61507ZM22.0795 10.7057L25.1429 3.57124H24.1464L22.7286 7.12979H22.7115L21.2595 3.57124H20.2631L22.2731 8.21006L21.1342 10.7057H22.0795Z" fill="#3C4043"/>
<path d="M8.8929 4.95793C8.8929 4.67486 8.87012 4.39179 8.82457 4.1145H4.95828V5.7147H7.17328C7.08218 6.22884 6.78608 6.69099 6.35333 6.97983V8.01967H7.67436C8.44876 7.29756 8.8929 6.22884 8.8929 4.95793Z" fill="#4285F4"/>
<path d="M4.95848 9.02474C6.06313 9.02474 6.99696 8.65502 7.67456 8.01956L6.35353 6.97972C5.98341 7.23391 5.5108 7.37833 4.95848 7.37833C3.88799 7.37833 2.98263 6.64467 2.65807 5.6626H1.29718V6.7371C1.99186 8.14088 3.40969 9.02474 4.95848 9.02474Z" fill="#34A853"/>
<path d="M2.65819 5.66265C2.48734 5.14851 2.48734 4.58815 2.65819 4.06823V2.99951H1.29709C0.710501 4.17222 0.710501 5.55867 1.29709 6.73137L2.65819 5.66265Z" fill="#FBBC04"/>
<path d="M4.95848 2.35247C5.54497 2.34092 6.10868 2.56621 6.53004 2.97637L7.70303 1.78634C6.9571 1.08156 5.97772 0.694508 4.95848 0.706062C3.40969 0.706062 1.99186 1.5957 1.29718 2.99948L2.65807 4.07398C2.98263 3.08613 3.88799 2.35247 4.95848 2.35247Z" fill="#EA4335"/>
</svg>
