<svg width="20" height="19" viewBox="0 0 20 19" fill="none" xmlns="http://www.w3.org/2000/svg">
<path d="M10.0009 1.52898C12.3499 -0.58002 15.9799 -0.51002 18.2429 1.75698C20.5049 4.02498 20.5829 7.63698 18.4789 9.99298L9.99888 18.485L1.52088 9.99298C-0.583116 7.63698 -0.504116 4.01898 1.75688 1.75698C4.02188 -0.50702 7.64488 -0.58302 10.0009 1.52898ZM16.8269 3.16998C15.3269 1.66798 12.9069 1.60698 11.3369 3.01698L10.0019 4.21498L8.66588 3.01798C7.09088 1.60598 4.67588 1.66798 3.17188 3.17198C1.68188 4.66198 1.60688 7.04698 2.97988 8.62298L9.99988 15.654L17.0199 8.62398C18.3939 7.04698 18.3189 4.66498 16.8269 3.16998Z" fill="#E21A43"/>
</svg>
