<svg width="26" height="10" viewBox="0 0 26 10" fill="none" xmlns="http://www.w3.org/2000/svg">
<path fill-rule="evenodd" clip-rule="evenodd" d="M0 7.40636C0.0173114 7.31334 0.0331656 7.22324 0.0487074 7.13492C0.0727287 6.99841 0.096004 6.86614 0.12276 6.73387C0.236078 6.13557 0.350183 5.53806 0.464287 4.94054L0.464304 4.94046C0.578402 4.34298 0.6925 3.7455 0.805812 3.14724C0.82155 3.07146 0.843584 3.02095 0.919129 3.00832C1.50775 2.91991 2.09952 2.85677 2.68814 3.00516C3.20121 3.13145 3.56005 3.49453 3.61986 3.92076C3.74262 4.77006 3.24843 5.44887 2.51501 5.69198C2.12785 5.81827 1.73438 5.84984 1.33463 5.81195C1.24019 5.80248 1.21187 5.82774 1.19613 5.9193C1.11114 6.38341 1.023 6.84437 0.93172 7.30533C0.925424 7.34322 0.8908 7.4032 0.868766 7.4032C0.654841 7.40792 0.444427 7.40735 0.225724 7.40676C0.151588 7.40656 0.0765003 7.40636 0 7.40636ZM1.35351 5.06053C1.41505 5.06053 1.47465 5.06215 1.53272 5.06373C1.65585 5.06708 1.77211 5.07024 1.88547 5.05737C2.21284 5.02264 2.47409 4.87425 2.62204 4.56168C2.78886 4.20807 2.66925 3.83236 2.35448 3.72185C2.131 3.64292 1.90121 3.65871 1.67143 3.69028C1.6431 3.69344 1.60533 3.73764 1.59903 3.76605C1.55504 3.9973 1.51104 4.22954 1.46539 4.47049L1.46535 4.47068L1.46527 4.47111L1.35351 5.06053ZM5.58088 6.80017C5.53107 6.85213 5.48442 6.9044 5.43882 6.95549C5.34034 7.06583 5.24679 7.17065 5.13705 7.25481C4.80655 7.51055 4.42882 7.56738 4.04795 7.39058C3.67023 7.21693 3.51599 6.8791 3.50025 6.48129C3.46562 5.64462 3.75836 4.95318 4.4603 4.47328C4.90098 4.17018 5.40776 4.07862 5.93342 4.10704C6.10731 4.1173 6.27986 4.14756 6.45281 4.17789L6.45282 4.17789C6.54599 4.19423 6.63927 4.21059 6.73294 4.22386C6.83996 4.23964 6.8557 4.29963 6.83681 4.39119C6.81155 4.52323 6.786 4.65513 6.76047 4.78695C6.66514 5.27922 6.57002 5.77035 6.49057 6.26344C6.445 6.54571 6.42683 6.83485 6.40883 7.12111L6.39928 7.2706C6.39299 7.37163 6.36781 7.41268 6.26393 7.40952C6.06878 7.4032 5.87362 7.4032 5.67846 7.40952C5.57773 7.41268 5.54311 7.37479 5.55255 7.27692C5.56154 7.16877 5.56732 7.05741 5.57332 6.94169V6.94168V6.94168L5.57332 6.94163L5.57333 6.9415L5.57334 6.94141L5.57334 6.94133L5.57334 6.94127L5.57335 6.94123C5.57575 6.89493 5.57819 6.84794 5.58088 6.80017ZM5.80122 4.84896C5.4959 4.76372 5.24093 4.82371 5.02689 5.00367C4.62398 5.34465 4.44142 5.78667 4.47604 6.31393C4.48549 6.47495 4.54844 6.62965 4.71841 6.69911C4.88839 6.76857 5.04263 6.71805 5.17483 6.60439C5.25352 6.53493 5.32907 6.456 5.38573 6.3676C5.60775 6.0277 5.6684 5.64429 5.73 5.25484L5.73 5.25481C5.75137 5.11974 5.77285 4.98393 5.80122 4.84896ZM10.2615 6.61704C10.4346 7.17272 10.9099 7.48213 11.7441 7.48213C12.317 7.46634 12.8867 7.14115 13.2424 6.47181C13.4312 6.11188 13.5005 5.7267 13.4753 5.32257C13.4533 4.93423 13.299 4.60588 12.9843 4.37224C12.6538 4.12597 12.276 4.07546 11.8731 4.11966C10.5259 4.27121 9.97507 5.70144 10.2615 6.61704ZM11.1579 6.15338C11.1583 6.13725 11.1586 6.12123 11.1586 6.10556C11.1681 5.74248 11.2562 5.40465 11.4734 5.10471C11.571 4.97211 11.6937 4.87108 11.8574 4.83319C12.1911 4.75742 12.4649 4.95001 12.4964 5.31309C12.5342 5.75826 12.4271 6.16871 12.147 6.52547C12.04 6.65808 11.9046 6.74964 11.7315 6.76542C11.4199 6.79384 11.1838 6.5823 11.1586 6.25079C11.1565 6.21912 11.1572 6.18602 11.1579 6.15341V6.1534V6.1534V6.15339V6.15338ZM14.2245 4.18597H15.024C15.0114 4.35646 14.9988 4.52064 14.9831 4.68797C15.0122 4.66082 15.0403 4.63398 15.0678 4.60767L15.0679 4.60758L15.0681 4.60746L15.0681 4.60745L15.0681 4.60743L15.0681 4.60741C15.127 4.55122 15.1834 4.49743 15.2412 4.44802C15.5528 4.1765 15.9085 4.05652 16.3209 4.12283C16.6608 4.17966 16.8969 4.42908 16.9347 4.77953C16.9757 5.1442 16.9075 5.49791 16.8395 5.85086L16.8395 5.85088L16.8245 5.92877C16.797 6.07165 16.7698 6.21452 16.7426 6.3573L16.7422 6.35917C16.6825 6.67326 16.6227 6.98688 16.5601 7.29902C16.5506 7.34006 16.5034 7.40005 16.4719 7.40321C16.2012 7.40952 15.9305 7.40636 15.6598 7.40321C15.6508 7.40321 15.6417 7.39829 15.6279 7.39081L15.6279 7.3908L15.6278 7.39075C15.6225 7.38787 15.6165 7.38461 15.6095 7.3811C15.6598 7.11905 15.7102 6.85384 15.7574 6.58864C15.8298 6.18135 15.8991 5.77722 15.962 5.36994C15.9746 5.30048 15.9683 5.22786 15.9589 5.1584C15.9337 4.9153 15.7543 4.80479 15.5213 4.87741C15.2947 4.95003 15.1594 5.12683 15.0492 5.32258C14.8855 5.60989 14.8288 5.92877 14.7722 6.24765L14.7299 6.4843L14.7299 6.48444C14.6818 6.75497 14.6338 7.02447 14.5802 7.29586C14.5707 7.3369 14.5235 7.40005 14.492 7.40321C14.2713 7.41075 14.0486 7.41028 13.8112 7.40978H13.8111H13.8111H13.8111L13.6264 7.40952C13.8342 6.32343 14.0293 5.25944 14.2245 4.18597ZM18.7634 6.7465C18.4298 6.70545 18.2063 6.47181 18.2283 6.14346C18.2979 6.14346 18.3672 6.14452 18.4361 6.14558C18.5728 6.14768 18.7082 6.14976 18.8421 6.14346C19.1664 6.12452 19.4843 6.07084 19.7802 5.92245C20.1579 5.73302 20.3341 5.42045 20.3058 5.01317C20.2775 4.59957 20.054 4.29963 19.6542 4.17965C19.0562 3.99969 18.5053 4.12598 18.0363 4.52695C17.4666 5.01317 17.2526 5.65724 17.3344 6.39288C17.391 6.91383 17.6743 7.28638 18.1906 7.41899C18.7446 7.56107 19.2891 7.48529 19.8148 7.2706C19.8526 7.25481 19.8966 7.19482 19.8935 7.15694C19.8859 7.00286 19.8703 6.84878 19.8547 6.6947L19.8431 6.57916C19.8328 6.57916 19.8251 6.57863 19.8192 6.57822C19.8107 6.57763 19.8059 6.5773 19.8022 6.57916C19.7676 6.59179 19.7329 6.60442 19.7015 6.61705C19.3993 6.73387 19.0877 6.78438 18.7634 6.7465ZM19.2513 5.34782C19.0593 5.44885 18.562 5.50884 18.3196 5.45832C18.37 5.03841 18.8138 4.71005 19.1884 4.80161C19.3143 4.83319 19.4056 4.89949 19.4276 5.03525C19.4496 5.16785 19.3835 5.27836 19.2513 5.34782ZM21.3729 6.15612C21.3446 6.46553 21.5649 6.70232 21.9017 6.74652C22.2165 6.78441 22.5187 6.73705 22.8146 6.6297C22.8418 6.61945 22.8682 6.6092 22.8971 6.59794C22.9216 6.5884 22.9479 6.57815 22.9782 6.56656C22.9844 6.63334 22.9912 6.69879 22.9979 6.76334L22.9979 6.76363V6.76364C23.0119 6.89733 23.0254 7.02715 23.0317 7.15696C23.0349 7.19485 22.9908 7.25484 22.9562 7.27063C22.4211 7.49163 21.8702 7.56741 21.3068 7.4127C20.8 7.27378 20.5356 6.90438 20.4727 6.39922C20.394 5.75199 20.5608 5.1679 21.0109 4.688C21.4957 4.17337 22.0906 3.99025 22.7768 4.17968C23.1954 4.2965 23.4189 4.59959 23.4441 5.02582C23.4693 5.44258 23.2804 5.75515 22.887 5.93827C22.4903 6.12139 22.0686 6.1498 21.6405 6.15927C21.5555 6.15612 21.4673 6.15612 21.3729 6.15612ZM21.6331 5.47444L21.6331 5.47443C21.7728 5.46742 21.9073 5.46067 22.0402 5.44259C22.1661 5.4268 22.292 5.38891 22.4054 5.33524C22.5281 5.28157 22.5879 5.16791 22.569 5.02899C22.5502 4.89638 22.462 4.83324 22.3393 4.80167C21.9678 4.70064 21.5051 5.04162 21.4642 5.48363C21.5214 5.48004 21.5777 5.47722 21.6331 5.47444ZM23.6172 6.7465C23.5763 6.96119 23.5385 7.17273 23.4976 7.40636C23.5606 7.40636 23.6228 7.40649 23.6842 7.40662C23.9264 7.40712 24.1574 7.4076 24.3884 7.40005C24.4104 7.40005 24.445 7.34006 24.4513 7.30217C24.4834 7.14448 24.5132 6.98601 24.543 6.82759C24.5978 6.53559 24.6527 6.24373 24.722 5.95719C24.8763 5.31942 25.1375 5.09841 25.7576 5.01633C25.7828 5.01317 25.8237 4.98475 25.83 4.96265C25.8695 4.7812 25.9049 4.59837 25.9416 4.4087C25.9605 4.31125 25.9797 4.212 26 4.1102C25.4019 4.04705 25.0683 4.39435 24.7787 4.82058L24.7833 4.7589C24.7976 4.5704 24.812 4.37858 24.8291 4.1765C24.7636 4.1765 24.6994 4.1763 24.6361 4.1761C24.4496 4.17551 24.2711 4.17494 24.0925 4.17966C24.0673 4.18281 24.0201 4.23964 24.0169 4.27437C23.9498 5.08584 23.7908 5.87948 23.632 6.67259L23.6172 6.7465Z" fill="black"/>
<path fill-rule="evenodd" clip-rule="evenodd" d="M15.2833 0.377003C15.2514 0.368567 15.2195 0.360131 15.1877 0.353027C15.0901 0.353027 14.9925 0.353027 14.8886 0.356185C14.8532 0.363302 14.8177 0.371061 14.7819 0.378883C14.7383 0.38841 14.6943 0.398031 14.6494 0.406701C14.1678 0.498261 13.7145 0.665595 13.277 0.886602C12.3295 1.3665 11.4797 1.98848 10.7179 2.72412C10.2111 3.21034 9.7201 3.71865 9.2448 4.2396C8.41066 5.1552 7.69613 6.16236 7.1264 7.2674C6.83366 7.83886 6.56925 8.42295 6.44964 9.05756C6.42761 9.17438 6.46538 9.31014 6.50315 9.42696C6.51889 9.47431 6.60703 9.50904 6.66683 9.52799C6.68257 9.5343 6.72979 9.45537 6.75182 9.41117C6.75964 9.39405 6.76765 9.3765 6.77584 9.35857C6.91254 9.0591 7.09739 8.65414 7.25777 8.38603C7.59772 7.81773 7.86611 7.3779 8.24698 6.83801C8.85763 5.96977 9.57114 5.11789 10.3203 4.36646C11.0285 3.65608 11.7378 3.0209 12.6286 2.541C13.0378 2.32315 13.4564 2.10846 13.8845 1.93165C14.6242 1.6254 15.3954 1.41702 16.1886 1.3002C16.2736 1.28757 16.3869 1.22127 16.4153 1.15181C16.4404 1.08867 16.3806 0.968691 16.3208 0.908703C16.0785 0.65928 15.7952 0.469845 15.4426 0.413015C15.3895 0.405122 15.3364 0.391063 15.2833 0.377003ZM8.07701 4.68477C8.2281 4.27433 8.30365 3.8481 8.31309 3.40608C8.30889 3.35872 8.30539 3.31137 8.3019 3.26401C8.2949 3.16929 8.28791 3.07457 8.27532 2.97986C8.19033 2.24737 7.87556 1.6254 7.37507 1.09182C7.31527 1.03183 7.23343 0.984475 7.15159 0.95606C7.06975 0.924487 7.01624 0.971846 7.02253 1.06656C7.02268 1.06856 7.02284 1.07057 7.02299 1.07257C7.02914 1.1528 7.0355 1.2359 7.05086 1.31599C7.07298 1.44215 7.09494 1.56847 7.11692 1.69487C7.19504 2.14417 7.27335 2.59455 7.35933 3.043C7.44432 3.49449 7.53875 3.94282 7.63948 4.38799C7.6741 4.53006 7.73076 4.67214 7.80001 4.80474C7.85352 4.90578 7.92907 4.8963 7.99832 4.80474C8.02979 4.76686 8.06127 4.72897 8.07701 4.68477Z" fill="#FC461E"/>
</svg>
