<svg width="18" height="17" viewBox="0 0 18 17" fill="none" xmlns="http://www.w3.org/2000/svg">
<path fill-rule="evenodd" clip-rule="evenodd" d="M8.38357 1.45714C4.69406 1.45714 1.70313 4.38501 1.70313 7.99671C1.70313 11.6084 4.69406 14.5363 8.38357 14.5363C12.0731 14.5363 15.064 11.6084 15.064 7.99671C15.064 4.38501 12.0731 1.45714 8.38357 1.45714ZM0.2146 7.99671C0.2146 3.58025 3.87197 0 8.38357 0C12.8952 0 16.5525 3.58025 16.5525 7.99671C16.5525 10.0386 15.7708 11.9017 14.4843 13.3149L16.9841 15.7556C17.2751 16.0397 17.2757 16.501 16.9855 16.7859C16.6952 17.0708 16.2239 17.0714 15.9329 16.7873L13.3967 14.311C12.0128 15.3654 10.2731 15.9934 8.38357 15.9934C3.87197 15.9934 0.2146 12.4132 0.2146 7.99671Z" fill="white"/>
</svg>
