<svg width="15" height="18" viewBox="0 0 15 18" fill="none" xmlns="http://www.w3.org/2000/svg">
<path d="M6.49828 0.0537936C5.74459 0.188784 5.06214 0.556257 4.53342 1.11497C3.86597 1.80867 3.52475 2.6786 3.52475 3.67603V4.04726H2.7823C1.96861 4.04726 1.74737 4.081 1.4099 4.26474C1.01993 4.47098 0.656203 4.93219 0.528712 5.37841C0.483715 5.5284 0 15.3789 0 16.1026C0 16.3089 0.0224984 16.5639 0.0524962 16.6688C0.217484 17.2951 0.776194 17.82 1.4174 17.955C1.69863 18.015 12.5503 18.015 12.8316 17.955C13.4765 17.82 14.0277 17.3026 14.1965 16.6688C14.2265 16.5639 14.249 16.3089 14.249 16.1026C14.249 15.3789 13.7653 5.5284 13.7203 5.37841C13.5928 4.93219 13.229 4.47098 12.8391 4.26474C12.5016 4.081 12.2766 4.04726 11.4704 4.04726H10.7355L10.713 3.52979C10.683 2.74985 10.5105 2.19489 10.1055 1.59118C9.33308 0.428767 7.87068 -0.193689 6.49828 0.0537936ZM7.6307 1.25371C8.3094 1.3962 8.93936 1.88366 9.25433 2.50987C9.44557 2.89234 9.52431 3.23356 9.52431 3.69853V4.04726H4.72466V3.69853C4.72841 2.95983 4.95339 2.38988 5.43336 1.90616C6.01832 1.32495 6.82076 1.08497 7.6307 1.25371ZM12.1604 5.26217C12.3329 5.32591 12.4379 5.41216 12.5128 5.56215C12.5578 5.65214 12.6178 6.63832 12.8128 10.7368C12.9441 13.5228 13.0453 15.9451 13.0416 16.1214C13.0303 16.4926 12.9703 16.6014 12.7266 16.7213C12.5766 16.7963 12.5128 16.7963 7.12449 16.7963C1.73613 16.7963 1.67238 16.7963 1.52239 16.7213C1.27491 16.5976 1.21866 16.4926 1.20741 16.1026C1.20366 15.9152 1.30491 13.5041 1.43615 10.7368C1.70238 5.18342 1.67238 5.5209 1.94611 5.35216L2.0811 5.26592L5.98082 5.24717C8.12566 5.23592 10.3605 5.22467 10.9492 5.22092C11.7704 5.21342 12.0516 5.22467 12.1604 5.26217Z" fill="white"/>
<path d="M3.86972 6.59707C3.57724 6.77706 3.53225 7.06204 3.71223 7.617C3.89222 8.17571 4.12095 8.54318 4.57467 9.00065C5.10338 9.53311 5.5571 9.79559 6.2808 9.99058C6.63702 10.0843 7.37947 10.1068 7.77319 10.0318C8.93186 9.81059 9.86554 9.11314 10.383 8.07446C10.5705 7.69949 10.7017 7.23452 10.6755 7.02454C10.6417 6.72456 10.4055 6.52208 10.0868 6.52208C9.77555 6.52208 9.56931 6.69456 9.48682 7.02829C9.31808 7.69574 8.87561 8.2882 8.31315 8.59943C7.57445 9.00815 6.65952 9.0044 5.93207 8.58443C5.65084 8.41944 5.25337 8.02947 5.08838 7.75574C5.00964 7.6245 4.89715 7.35452 4.8334 7.15578C4.72091 6.79581 4.63467 6.66457 4.43593 6.56332C4.30469 6.49583 4.00846 6.51458 3.86972 6.59707Z" fill="white"/>
</svg>
